<svg width="17" height="9" viewBox="0 0 17 9" fill="none" xmlns="http://www.w3.org/2000/svg">
<path d="M16.342 1.36477C16.5434 1.17591 16.5536 0.859487 16.3648 0.658031C16.1759 0.456575 15.8595 0.446368 15.658 0.635233L16.342 1.36477ZM8.5 8.03125L8.15803 8.39602C8.35036 8.57633 8.64964 8.57633 8.84197 8.39602L8.5 8.03125ZM1.34197 0.635231C1.14051 0.446366 0.824097 0.456573 0.635231 0.658029C0.446366 0.859485 0.456573 1.1759 0.65803 1.36477L1.34197 0.635231ZM15.658 0.635233L8.15803 7.66648L8.84197 8.39602L16.342 1.36477L15.658 0.635233ZM8.84197 7.66648L1.34197 0.635231L0.65803 1.36477L8.15803 8.39602L8.84197 7.66648Z" fill="#525759"/>
<path d="M16.342 1.36477C16.5434 1.17591 16.5536 0.859487 16.3648 0.658031C16.1759 0.456575 15.8595 0.446368 15.658 0.635233L16.342 1.36477ZM8.5 8.03125L8.15803 8.39602C8.35036 8.57633 8.64964 8.57633 8.84197 8.39602L8.5 8.03125ZM1.34197 0.635231C1.14051 0.446366 0.824097 0.456573 0.635231 0.658029C0.446366 0.859485 0.456573 1.1759 0.65803 1.36477L1.34197 0.635231ZM15.658 0.635233L8.15803 7.66648L8.84197 8.39602L16.342 1.36477L15.658 0.635233ZM8.84197 7.66648L1.34197 0.635231L0.65803 1.36477L8.15803 8.39602L8.84197 7.66648Z" fill="black" fill-opacity="0.2"/>
</svg>
