<svg width="49" height="30" viewBox="0 0 49 30" fill="none" xmlns="http://www.w3.org/2000/svg">
<path d="M42.8861 0.079834C41.2643 0.079834 39.715 0.753134 38.6084 1.93953C37.5018 3.12553 36.937 4.71795 37.0486 6.33629C37.1605 7.95464 37.9389 9.4543 39.1981 10.477L35.3746 18.9104C34.4423 18.4062 33.391 18.1657 32.3324 18.2144C31.2739 18.263 30.2485 18.599 29.3666 19.1862L24.6728 8.90819H24.6723C25.0653 7.19081 24.6639 5.38731 23.5795 3.99879C22.4951 2.61027 20.8429 1.7843 19.0819 1.75038C17.3209 1.71602 15.6379 2.47767 14.5005 3.823C13.3635 5.16868 12.8924 6.95482 13.2185 8.68648L8.31902 14.9073C6.5549 14.1867 4.55075 14.3661 2.94272 15.3887C1.3347 16.4114 0.321715 18.1507 0.225796 20.0546C0.129448 21.9585 0.961786 23.7906 2.45924 24.9703C3.95616 26.1496 5.93176 26.5302 7.75972 25.9907C9.58767 25.4513 11.0404 24.0592 11.6578 22.2557C12.2752 20.4522 11.9803 18.4612 10.8665 16.9143L14.8899 11.8076C15.9073 12.8031 17.254 13.3916 18.6755 13.4625C20.0971 13.533 21.495 13.081 22.6066 12.1918L27.106 22.0317C26.4186 23.8852 26.713 25.96 27.8888 27.5489C29.0641 29.1378 30.9621 30.0262 32.9346 29.9101C34.907 29.7946 36.6882 28.6907 37.67 26.9751C38.6517 25.2599 38.7017 23.1647 37.8029 21.4044L42.1777 11.7537C43.7648 11.9192 45.3505 11.4293 46.5678 10.3973C47.785 9.36478 48.5282 7.88032 48.625 6.28699C48.7218 4.69367 48.1638 3.12969 47.0804 1.95809C45.9965 0.786363 44.4816 0.10775 42.8862 0.0801076L42.8861 0.079834ZM6.11232 22.9614C5.42093 22.9614 4.75814 22.687 4.26918 22.198C3.78022 21.709 3.50553 21.0459 3.50553 20.3543C3.50553 19.6627 3.7803 18.9997 4.26918 18.5106C4.75806 18.0215 5.4209 17.7467 6.11232 17.7467C6.80374 17.7467 7.4665 18.0215 7.95546 18.5106C8.44442 18.9996 8.71866 19.6627 8.71866 20.3543C8.71732 21.0454 8.44255 21.7076 7.95368 22.1962C7.46525 22.6852 6.80333 22.9601 6.11236 22.9614L6.11232 22.9614ZM18.9667 10.2436C18.2753 10.2436 17.6125 9.96875 17.1236 9.47971C16.6346 8.99068 16.3599 8.32764 16.3599 7.63601C16.3599 6.94437 16.6347 6.28141 17.1236 5.7923C17.6124 5.30318 18.2753 5.02842 18.9667 5.02842C19.6581 5.02842 20.3209 5.30326 20.8098 5.7923C21.2988 6.28133 21.573 6.94437 21.573 7.63601C21.5717 8.32716 21.2969 8.98935 20.8081 9.47834C20.3196 9.96692 19.6577 10.2418 18.9667 10.2436L18.9667 10.2436ZM32.6101 26.6715C31.9187 26.6715 31.256 26.3971 30.767 25.908C30.278 25.419 30.0033 24.7555 30.0033 24.0643C30.0033 23.3727 30.2781 22.7093 30.767 22.2206C31.2559 21.7316 31.9187 21.4567 32.6101 21.4567C33.3015 21.4567 33.9643 21.7316 34.4533 22.2206C34.9421 22.7092 35.2165 23.3727 35.2165 24.0643C35.2151 24.755 34.9404 25.4177 34.4515 25.9062C33.9631 26.3948 33.3011 26.6701 32.6102 26.6714L32.6101 26.6715ZM42.885 8.54392C42.1936 8.54392 41.5308 8.26907 41.0418 7.78004C40.5529 7.29101 40.2782 6.62797 40.2782 5.93633C40.2782 5.24473 40.5529 4.58174 41.0418 4.09262C41.5307 3.60351 42.1935 3.32919 42.885 3.32919C43.5763 3.32919 44.2391 3.60359 44.7281 4.09262C45.2171 4.58166 45.4913 5.2447 45.4913 5.93633C45.49 6.62749 45.2152 7.29013 44.7263 7.77867C44.2379 8.26725 43.576 8.54255 42.885 8.54389L42.885 8.54392Z" fill="#06AC72"/>
</svg>
