<svg width="43" height="52" viewBox="0 0 43 52" fill="none" xmlns="http://www.w3.org/2000/svg">
<path d="M9.88874 6.39822H20.0471C20.6288 6.39822 21.1013 5.92608 21.1013 5.34395C21.1013 4.76225 20.6292 4.28967 20.0471 4.28967L9.88874 4.29011C9.30704 4.29011 8.83447 4.76225 8.83447 5.34438C8.83491 5.92608 9.30704 6.39822 9.88874 6.39822Z" fill="#06AC72"/>
<path d="M12.0186 46.6551C12.0186 47.2368 12.4907 47.7094 13.0728 47.7094H16.8651C17.4468 47.7094 17.9194 47.2372 17.9194 46.6551C17.9194 46.0734 17.4473 45.6008 16.8651 45.6008H13.0728C12.4907 45.6008 12.0186 46.073 12.0186 46.6551Z" fill="#06AC72"/>
<path d="M42.8806 28.7321L39.9226 18.735C39.9226 18.7342 39.9226 18.7324 39.9221 18.7316C39.9217 18.7307 39.9213 18.7294 39.9204 18.7281L37.8849 11.8478C37.6175 10.9465 36.7754 10.3166 35.8351 10.3166C35.6298 10.3166 35.426 10.3461 35.2286 10.4044L29.9073 11.9782V2.83761C29.9073 1.65854 28.9483 0.699951 27.7697 0.699951H2.16939C0.990772 0.699951 0.0317383 1.65858 0.0317383 2.83761V49.1623C0.0317383 50.3409 0.990361 51.2999 2.16939 51.2999H27.7697C28.9483 51.2999 29.9073 50.3413 29.9073 49.1623V34.8007L41.4387 31.3888C42.5681 31.0545 43.2151 29.8619 42.8803 28.7329L42.8806 28.7321ZM10.0483 24.1489L36.9619 16.186L37.5896 18.3219L10.6761 26.2848L10.0483 24.1489ZM35.8634 12.4451L36.3681 14.1623L9.45459 22.1257L8.94115 20.3801L35.8634 12.4451ZM27.7701 49.1905L2.13976 49.1609L2.16932 2.80732L27.7985 2.83688V12.6013L8.34179 18.3579C7.794 18.52 7.3423 18.8857 7.07012 19.3878C6.79754 19.8895 6.7371 20.4673 6.89883 21.0141L7.70485 23.7374C7.70485 23.7392 7.70485 23.7401 7.70529 23.7418C7.70529 23.7422 7.70616 23.7435 7.70616 23.744L8.93386 27.8936C8.9343 27.8954 8.9343 27.8967 8.93473 27.8989C8.93473 27.8997 8.9356 27.901 8.93647 27.9019L11.894 37.898C12.1605 38.8006 13.0035 39.4309 13.9439 39.4309C14.1482 39.4309 14.3526 39.4009 14.5504 39.3431L27.7957 35.4243L27.7701 49.1905ZM13.9549 37.3208C13.9514 37.3217 13.948 37.3225 13.9454 37.3225L13.9175 37.3004L11.2725 28.3075L38.186 20.3438L40.8393 29.367L13.9549 37.3208Z" fill="#06AC72"/>
<path d="M37.9704 26.9368C37.8057 26.3782 37.2201 26.0603 36.6605 26.2247L31.2048 27.8385C30.6461 28.0032 30.3279 28.5902 30.4927 29.1484C30.6287 29.6071 31.0483 29.9045 31.503 29.9045C31.6021 29.9045 31.7026 29.8901 31.8026 29.8605L37.2583 28.2468C37.8169 28.0815 38.1356 27.4955 37.9704 26.9368L37.9704 26.9368Z" fill="#06AC72"/>
</svg>
